<mxfile host="app.diagrams.net" modified="2022-06-20T07:32:46.625Z" agent="5.0 (Windows NT 10.0; Win64; x64) AppleWebKit/537.36 (KHTML, like Gecko) Chrome/100.0.4896.127 Safari/537.36" etag="xE4ffhmX_VdoH0EWtC7Z" version="20.0.1" type="github">
  <diagram id="kgpKYQtTHZ0yAKxKKP6v" name="Page-1">
    <mxGraphModel dx="1483" dy="701" grid="1" gridSize="10" guides="1" tooltips="1" connect="1" arrows="1" fold="1" page="1" pageScale="1" pageWidth="850" pageHeight="1100" math="0" shadow="0">
      <root>
        <mxCell id="0" />
        <mxCell id="1" parent="0" />
        <mxCell id="MypuM2RhYfI2Ygaio_py-3" value="平台访问接口" style="shape=umlLifeline;perimeter=lifelinePerimeter;whiteSpace=wrap;html=1;container=1;collapsible=0;recursiveResize=0;outlineConnect=0;" vertex="1" parent="1">
          <mxGeometry x="150" y="80" width="100" height="500" as="geometry" />
        </mxCell>
        <mxCell id="MypuM2RhYfI2Ygaio_py-4" value="" style="html=1;points=[];perimeter=orthogonalPerimeter;" vertex="1" parent="MypuM2RhYfI2Ygaio_py-3">
          <mxGeometry x="45" y="90" width="10" height="340" as="geometry" />
        </mxCell>
        <mxCell id="MypuM2RhYfI2Ygaio_py-45" value="验证数据源" style="html=1;verticalAlign=bottom;endArrow=block;rounded=0;" edge="1" parent="MypuM2RhYfI2Ygaio_py-3" target="MypuM2RhYfI2Ygaio_py-43">
          <mxGeometry width="80" relative="1" as="geometry">
            <mxPoint x="50" y="100" as="sourcePoint" />
            <mxPoint x="130" y="100" as="targetPoint" />
          </mxGeometry>
        </mxCell>
        <mxCell id="MypuM2RhYfI2Ygaio_py-51" value="数据源连接参数请求" style="html=1;verticalAlign=bottom;endArrow=block;rounded=0;" edge="1" parent="MypuM2RhYfI2Ygaio_py-3" target="MypuM2RhYfI2Ygaio_py-6">
          <mxGeometry width="80" relative="1" as="geometry">
            <mxPoint x="50" y="200" as="sourcePoint" />
            <mxPoint x="130" y="200" as="targetPoint" />
          </mxGeometry>
        </mxCell>
        <mxCell id="MypuM2RhYfI2Ygaio_py-6" value="数据源连接参数管理节点" style="shape=umlLifeline;perimeter=lifelinePerimeter;whiteSpace=wrap;html=1;container=1;collapsible=0;recursiveResize=0;outlineConnect=0;" vertex="1" parent="1">
          <mxGeometry x="433" y="80" width="120" height="500" as="geometry" />
        </mxCell>
        <mxCell id="MypuM2RhYfI2Ygaio_py-7" value="" style="html=1;points=[];perimeter=orthogonalPerimeter;" vertex="1" parent="MypuM2RhYfI2Ygaio_py-6">
          <mxGeometry x="55" y="195" width="10" height="230" as="geometry" />
        </mxCell>
        <mxCell id="MypuM2RhYfI2Ygaio_py-8" value="获取缓存" style="html=1;verticalAlign=bottom;endArrow=block;rounded=0;" edge="1" parent="MypuM2RhYfI2Ygaio_py-6">
          <mxGeometry width="80" relative="1" as="geometry">
            <mxPoint x="60" y="225" as="sourcePoint" />
            <mxPoint x="229.5" y="225" as="targetPoint" />
          </mxGeometry>
        </mxCell>
        <mxCell id="MypuM2RhYfI2Ygaio_py-9" value="获取存储" style="html=1;verticalAlign=bottom;endArrow=block;rounded=0;" edge="1" parent="MypuM2RhYfI2Ygaio_py-6">
          <mxGeometry width="80" relative="1" as="geometry">
            <mxPoint x="60" y="335" as="sourcePoint" />
            <mxPoint x="399" y="335" as="targetPoint" />
          </mxGeometry>
        </mxCell>
        <mxCell id="MypuM2RhYfI2Ygaio_py-10" value="更新缓存" style="html=1;verticalAlign=bottom;endArrow=block;rounded=0;" edge="1" parent="MypuM2RhYfI2Ygaio_py-6">
          <mxGeometry width="80" relative="1" as="geometry">
            <mxPoint x="60" y="415" as="sourcePoint" />
            <mxPoint x="229.5" y="415" as="targetPoint" />
          </mxGeometry>
        </mxCell>
        <mxCell id="MypuM2RhYfI2Ygaio_py-12" value="数据源连接参数管理节点" style="shape=umlLifeline;perimeter=lifelinePerimeter;whiteSpace=wrap;html=1;container=1;collapsible=0;recursiveResize=0;outlineConnect=0;" vertex="1" parent="1">
          <mxGeometry x="220" y="738" width="120" height="520" as="geometry" />
        </mxCell>
        <mxCell id="MypuM2RhYfI2Ygaio_py-13" value="" style="html=1;points=[];perimeter=orthogonalPerimeter;" vertex="1" parent="MypuM2RhYfI2Ygaio_py-12">
          <mxGeometry x="55" y="90" width="10" height="390" as="geometry" />
        </mxCell>
        <mxCell id="MypuM2RhYfI2Ygaio_py-14" value="信息获取" style="html=1;verticalAlign=bottom;endArrow=block;rounded=0;" edge="1" parent="MypuM2RhYfI2Ygaio_py-12" target="MypuM2RhYfI2Ygaio_py-17">
          <mxGeometry width="80" relative="1" as="geometry">
            <mxPoint x="60" y="110" as="sourcePoint" />
            <mxPoint x="140" y="110" as="targetPoint" />
          </mxGeometry>
        </mxCell>
        <mxCell id="MypuM2RhYfI2Ygaio_py-15" value="信息更新" style="html=1;verticalAlign=bottom;endArrow=block;rounded=0;" edge="1" parent="MypuM2RhYfI2Ygaio_py-12" target="MypuM2RhYfI2Ygaio_py-31">
          <mxGeometry x="0.0745" width="80" relative="1" as="geometry">
            <mxPoint x="60" y="200" as="sourcePoint" />
            <mxPoint x="140" y="200" as="targetPoint" />
            <mxPoint as="offset" />
          </mxGeometry>
        </mxCell>
        <mxCell id="MypuM2RhYfI2Ygaio_py-16" value="缓存更新" style="html=1;verticalAlign=bottom;endArrow=block;rounded=0;" edge="1" parent="MypuM2RhYfI2Ygaio_py-12" target="MypuM2RhYfI2Ygaio_py-35">
          <mxGeometry width="80" relative="1" as="geometry">
            <mxPoint x="60" y="310" as="sourcePoint" />
            <mxPoint x="140" y="310" as="targetPoint" />
          </mxGeometry>
        </mxCell>
        <mxCell id="MypuM2RhYfI2Ygaio_py-17" value="分散数据库信息采集聚合模块" style="shape=umlLifeline;perimeter=lifelinePerimeter;whiteSpace=wrap;html=1;container=1;collapsible=0;recursiveResize=0;outlineConnect=0;" vertex="1" parent="1">
          <mxGeometry x="443" y="738" width="120" height="520" as="geometry" />
        </mxCell>
        <mxCell id="MypuM2RhYfI2Ygaio_py-18" value="" style="html=1;points=[];perimeter=orthogonalPerimeter;" vertex="1" parent="MypuM2RhYfI2Ygaio_py-17">
          <mxGeometry x="55" y="110" width="10" height="50" as="geometry" />
        </mxCell>
        <mxCell id="MypuM2RhYfI2Ygaio_py-19" value="连接参数信息" style="html=1;verticalAlign=bottom;endArrow=open;dashed=1;endSize=8;rounded=0;" edge="1" parent="1" target="MypuM2RhYfI2Ygaio_py-12">
          <mxGeometry relative="1" as="geometry">
            <mxPoint x="500" y="898" as="sourcePoint" />
            <mxPoint x="470" y="898" as="targetPoint" />
          </mxGeometry>
        </mxCell>
        <mxCell id="MypuM2RhYfI2Ygaio_py-20" value="redis" style="shape=umlLifeline;perimeter=lifelinePerimeter;whiteSpace=wrap;html=1;container=1;collapsible=0;recursiveResize=0;outlineConnect=0;" vertex="1" parent="1">
          <mxGeometry x="603" y="80" width="120" height="500" as="geometry" />
        </mxCell>
        <mxCell id="MypuM2RhYfI2Ygaio_py-21" value="" style="html=1;points=[];perimeter=orthogonalPerimeter;" vertex="1" parent="MypuM2RhYfI2Ygaio_py-20">
          <mxGeometry x="55" y="195" width="10" height="110" as="geometry" />
        </mxCell>
        <mxCell id="MypuM2RhYfI2Ygaio_py-22" value="" style="html=1;points=[];perimeter=orthogonalPerimeter;" vertex="1" parent="MypuM2RhYfI2Ygaio_py-20">
          <mxGeometry x="60" y="245" width="10" height="40" as="geometry" />
        </mxCell>
        <mxCell id="MypuM2RhYfI2Ygaio_py-23" value="缓存是否命中" style="edgeStyle=orthogonalEdgeStyle;html=1;align=left;spacingLeft=2;endArrow=block;rounded=0;entryX=1;entryY=0;" edge="1" parent="MypuM2RhYfI2Ygaio_py-20" target="MypuM2RhYfI2Ygaio_py-22">
          <mxGeometry relative="1" as="geometry">
            <mxPoint x="65" y="225" as="sourcePoint" />
            <Array as="points">
              <mxPoint x="95" y="225" />
            </Array>
          </mxGeometry>
        </mxCell>
        <mxCell id="MypuM2RhYfI2Ygaio_py-24" value="Mysql" style="shape=umlLifeline;perimeter=lifelinePerimeter;whiteSpace=wrap;html=1;container=1;collapsible=0;recursiveResize=0;outlineConnect=0;" vertex="1" parent="1">
          <mxGeometry x="773" y="80" width="119" height="500" as="geometry" />
        </mxCell>
        <mxCell id="MypuM2RhYfI2Ygaio_py-25" value="&lt;br&gt;未命中，返回信号" style="html=1;verticalAlign=bottom;endArrow=open;dashed=1;endSize=8;rounded=0;" edge="1" parent="1">
          <mxGeometry x="-0.0968" y="-10" relative="1" as="geometry">
            <mxPoint x="653" y="381" as="sourcePoint" />
            <mxPoint x="498" y="381" as="targetPoint" />
            <mxPoint as="offset" />
          </mxGeometry>
        </mxCell>
        <mxCell id="MypuM2RhYfI2Ygaio_py-26" value="" style="html=1;points=[];perimeter=orthogonalPerimeter;" vertex="1" parent="1">
          <mxGeometry x="828" y="405" width="10" height="60" as="geometry" />
        </mxCell>
        <mxCell id="MypuM2RhYfI2Ygaio_py-27" value="返回信息" style="html=1;verticalAlign=bottom;endArrow=open;dashed=1;endSize=8;rounded=0;" edge="1" parent="1" target="MypuM2RhYfI2Ygaio_py-7">
          <mxGeometry relative="1" as="geometry">
            <mxPoint x="833" y="465" as="sourcePoint" />
            <mxPoint x="753" y="465" as="targetPoint" />
          </mxGeometry>
        </mxCell>
        <mxCell id="MypuM2RhYfI2Ygaio_py-28" value="" style="html=1;points=[];perimeter=orthogonalPerimeter;" vertex="1" parent="1">
          <mxGeometry x="658" y="485" width="10" height="80" as="geometry" />
        </mxCell>
        <mxCell id="MypuM2RhYfI2Ygaio_py-29" value="" style="html=1;points=[];perimeter=orthogonalPerimeter;" vertex="1" parent="1">
          <mxGeometry x="663" y="515" width="10" height="40" as="geometry" />
        </mxCell>
        <mxCell id="MypuM2RhYfI2Ygaio_py-30" value="缓存更新" style="edgeStyle=orthogonalEdgeStyle;html=1;align=left;spacingLeft=2;endArrow=block;rounded=0;entryX=1;entryY=0;" edge="1" parent="1" target="MypuM2RhYfI2Ygaio_py-29">
          <mxGeometry relative="1" as="geometry">
            <mxPoint x="668" y="495" as="sourcePoint" />
            <Array as="points">
              <mxPoint x="698" y="495" />
            </Array>
          </mxGeometry>
        </mxCell>
        <mxCell id="MypuM2RhYfI2Ygaio_py-31" value="Mysql" style="shape=umlLifeline;perimeter=lifelinePerimeter;whiteSpace=wrap;html=1;container=1;collapsible=0;recursiveResize=0;outlineConnect=0;" vertex="1" parent="1">
          <mxGeometry x="630" y="738" width="120" height="520" as="geometry" />
        </mxCell>
        <mxCell id="MypuM2RhYfI2Ygaio_py-32" value="" style="html=1;points=[];perimeter=orthogonalPerimeter;" vertex="1" parent="MypuM2RhYfI2Ygaio_py-31">
          <mxGeometry x="55" y="190" width="10" height="100" as="geometry" />
        </mxCell>
        <mxCell id="MypuM2RhYfI2Ygaio_py-33" value="" style="html=1;points=[];perimeter=orthogonalPerimeter;" vertex="1" parent="MypuM2RhYfI2Ygaio_py-31">
          <mxGeometry x="60" y="240" width="10" height="40" as="geometry" />
        </mxCell>
        <mxCell id="MypuM2RhYfI2Ygaio_py-34" value="信息更新" style="edgeStyle=orthogonalEdgeStyle;html=1;align=left;spacingLeft=2;endArrow=block;rounded=0;entryX=1;entryY=0;exitX=1.06;exitY=0.51;exitDx=0;exitDy=0;exitPerimeter=0;" edge="1" parent="MypuM2RhYfI2Ygaio_py-31" source="MypuM2RhYfI2Ygaio_py-32" target="MypuM2RhYfI2Ygaio_py-33">
          <mxGeometry x="0.2505" y="-5" relative="1" as="geometry">
            <mxPoint x="65" y="120" as="sourcePoint" />
            <Array as="points">
              <mxPoint x="95" y="221" />
              <mxPoint x="95" y="240" />
            </Array>
            <mxPoint as="offset" />
          </mxGeometry>
        </mxCell>
        <mxCell id="MypuM2RhYfI2Ygaio_py-35" value="Redis" style="shape=umlLifeline;perimeter=lifelinePerimeter;whiteSpace=wrap;html=1;container=1;collapsible=0;recursiveResize=0;outlineConnect=0;" vertex="1" parent="1">
          <mxGeometry x="800" y="738" width="120" height="520" as="geometry" />
        </mxCell>
        <mxCell id="MypuM2RhYfI2Ygaio_py-36" value="" style="html=1;points=[];perimeter=orthogonalPerimeter;" vertex="1" parent="MypuM2RhYfI2Ygaio_py-35">
          <mxGeometry x="55" y="300" width="10" height="180" as="geometry" />
        </mxCell>
        <mxCell id="MypuM2RhYfI2Ygaio_py-37" value="" style="html=1;points=[];perimeter=orthogonalPerimeter;" vertex="1" parent="MypuM2RhYfI2Ygaio_py-35">
          <mxGeometry x="60" y="350" width="10" height="40" as="geometry" />
        </mxCell>
        <mxCell id="MypuM2RhYfI2Ygaio_py-38" value="删除缓存" style="edgeStyle=orthogonalEdgeStyle;html=1;align=left;spacingLeft=2;endArrow=block;rounded=0;entryX=1;entryY=0;" edge="1" parent="MypuM2RhYfI2Ygaio_py-35" target="MypuM2RhYfI2Ygaio_py-37">
          <mxGeometry relative="1" as="geometry">
            <mxPoint x="65" y="330" as="sourcePoint" />
            <Array as="points">
              <mxPoint x="95" y="330" />
            </Array>
          </mxGeometry>
        </mxCell>
        <mxCell id="MypuM2RhYfI2Ygaio_py-39" value="" style="html=1;points=[];perimeter=orthogonalPerimeter;" vertex="1" parent="MypuM2RhYfI2Ygaio_py-35">
          <mxGeometry x="60" y="420" width="10" height="40" as="geometry" />
        </mxCell>
        <mxCell id="MypuM2RhYfI2Ygaio_py-40" value="添加缓存" style="edgeStyle=orthogonalEdgeStyle;html=1;align=left;spacingLeft=2;endArrow=block;rounded=0;entryX=1;entryY=0;" edge="1" parent="MypuM2RhYfI2Ygaio_py-35" target="MypuM2RhYfI2Ygaio_py-39">
          <mxGeometry relative="1" as="geometry">
            <mxPoint x="65" y="400" as="sourcePoint" />
            <Array as="points">
              <mxPoint x="95" y="400" />
            </Array>
          </mxGeometry>
        </mxCell>
        <mxCell id="MypuM2RhYfI2Ygaio_py-41" value="更新成功" style="html=1;verticalAlign=bottom;endArrow=open;dashed=1;endSize=8;rounded=0;" edge="1" parent="1" target="MypuM2RhYfI2Ygaio_py-12">
          <mxGeometry x="-0.0744" y="-10" relative="1" as="geometry">
            <mxPoint x="690" y="1028" as="sourcePoint" />
            <mxPoint x="610" y="1028" as="targetPoint" />
            <mxPoint x="1" as="offset" />
          </mxGeometry>
        </mxCell>
        <mxCell id="MypuM2RhYfI2Ygaio_py-42" value="更新成功" style="html=1;verticalAlign=bottom;endArrow=open;dashed=1;endSize=8;rounded=0;" edge="1" parent="1" target="MypuM2RhYfI2Ygaio_py-12">
          <mxGeometry relative="1" as="geometry">
            <mxPoint x="860" y="1208" as="sourcePoint" />
            <mxPoint x="780" y="1208" as="targetPoint" />
          </mxGeometry>
        </mxCell>
        <mxCell id="MypuM2RhYfI2Ygaio_py-43" value="数据源维护节点" style="shape=umlLifeline;perimeter=lifelinePerimeter;whiteSpace=wrap;html=1;container=1;collapsible=0;recursiveResize=0;outlineConnect=0;" vertex="1" parent="1">
          <mxGeometry x="280" y="80" width="119" height="500" as="geometry" />
        </mxCell>
        <mxCell id="MypuM2RhYfI2Ygaio_py-44" value="" style="html=1;points=[];perimeter=orthogonalPerimeter;" vertex="1" parent="MypuM2RhYfI2Ygaio_py-43">
          <mxGeometry x="54.5" y="100" width="10" height="80" as="geometry" />
        </mxCell>
        <mxCell id="MypuM2RhYfI2Ygaio_py-48" value="" style="html=1;points=[];perimeter=orthogonalPerimeter;" vertex="1" parent="MypuM2RhYfI2Ygaio_py-43">
          <mxGeometry x="60" y="130" width="10" height="40" as="geometry" />
        </mxCell>
        <mxCell id="MypuM2RhYfI2Ygaio_py-49" value="数据源是否存在" style="edgeStyle=orthogonalEdgeStyle;html=1;align=left;spacingLeft=2;endArrow=block;rounded=0;entryX=1;entryY=0;" edge="1" target="MypuM2RhYfI2Ygaio_py-48" parent="MypuM2RhYfI2Ygaio_py-43">
          <mxGeometry relative="1" as="geometry">
            <mxPoint x="65" y="110" as="sourcePoint" />
            <Array as="points">
              <mxPoint x="95" y="110" />
            </Array>
          </mxGeometry>
        </mxCell>
        <mxCell id="MypuM2RhYfI2Ygaio_py-50" value="数据源存在" style="html=1;verticalAlign=bottom;endArrow=open;dashed=1;endSize=8;rounded=0;" edge="1" parent="1" target="MypuM2RhYfI2Ygaio_py-3">
          <mxGeometry relative="1" as="geometry">
            <mxPoint x="330" y="260" as="sourcePoint" />
            <mxPoint x="250" y="260" as="targetPoint" />
          </mxGeometry>
        </mxCell>
        <mxCell id="MypuM2RhYfI2Ygaio_py-55" value="数据源连接参数" style="html=1;verticalAlign=bottom;endArrow=open;dashed=1;endSize=8;rounded=0;" edge="1" parent="1" target="MypuM2RhYfI2Ygaio_py-3">
          <mxGeometry relative="1" as="geometry">
            <mxPoint x="490" y="500" as="sourcePoint" />
            <mxPoint x="410" y="500" as="targetPoint" />
          </mxGeometry>
        </mxCell>
      </root>
    </mxGraphModel>
  </diagram>
</mxfile>
